<?xml version="1.0" encoding="utf-8"?>
<!-- Generator: Adobe Illustrator 21.0.0, SVG Export Plug-In . SVG Version: 6.00 Build 0)  -->
<svg version="1.1" id="Capa_1" xmlns="http://www.w3.org/2000/svg" xmlns:xlink="http://www.w3.org/1999/xlink" x="0px" y="0px"
	 viewBox="0 0 255.7 200" style="enable-background:new 0 0 255.7 200;" xml:space="preserve">

	<style type="text/css">
		.st0{fill:#e6e6e6;}
	</style>
<path class="st0" d="M145.9,158.5c0,4.7-4.7,8.5-10.4,8.5h-11.6c-5.8,0-10.4-3.8-10.4-8.5V77.8c0-4.7,4.7-8.5,10.4-8.5h11.6
	c5.8,0,10.4,3.8,10.4,8.5V158.5z M237.9,97.6c-1.6-17.2-7.1-32-24.4-46.4c-16.4-13.7-36.3-14.9-48.6-16.5c-13-1.6-32.6-1.8-36.7-1.8
	l0,0c0,0-0.1,0-0.4,0c-0.3,0-0.4,0-0.4,0l0,0c-4.1,0-23.6,0.2-36.7,1.8c-12.3,1.6-32.2,2.8-48.6,16.5C24.9,65.7,19.4,80.4,17.8,97.6
	c-0.2,1.9-0.2,44-0.3,61.1c0.1,4.3,3.9,7.9,8.7,8.3c0.3,0,12.5,0,12.8,0c4.9-0.4,8.8-4.1,8.8-8.5c0,0,0.2-50.7,0.6-58.5
	c0.7-11.6,1.7-23,14.1-32.4C75,58,88.4,56.5,99.2,55.3c9.6-1.1,26.2-1.1,28.5-1.1h0.1h0.1c2.3,0,18.9,0,28.5,1.1
	c10.8,1.2,24.2,2.7,36.7,12.2c12.4,9.5,13.4,20.8,14.1,32.4c0.4,7.8,0.6,58.5,0.6,58.5c0,4.4,3.8,8.1,8.8,8.5c0.3,0,12.5,0,12.8,0
	c4.8-0.4,8.6-4,8.7-8.3C238.2,141.7,238.1,99.5,237.9,97.6 M145.9,158.5c0,4.7-4.7,8.5-10.4,8.5h-11.6c-5.8,0-10.4-3.8-10.4-8.5
	V77.8c0-4.7,4.7-8.5,10.4-8.5h11.6c5.8,0,10.4,3.8,10.4,8.5V158.5z M145.9,158.5c0,4.7-4.7,8.5-10.4,8.5h-11.6
	c-5.8,0-10.4-3.8-10.4-8.5V77.8c0-4.7,4.7-8.5,10.4-8.5h11.6c5.8,0,10.4,3.8,10.4,8.5V158.5z"/>
</svg>